<?xml version="1.0" encoding="UTF-8"?><svg id="a" xmlns="http://www.w3.org/2000/svg" viewBox="0 0 364.93 398.75"><defs><style>.c{fill:#101418;fill-rule:evenodd;}</style></defs><g id="b"><g><path class="c" d="M139.32,42.35c-22.98,6.17-37.26-1.63-70.45,35.49-11.47,12.83-16.84,4.49-49.19,54.79C3.9,157.18-3.69,194.31,1.74,224.46c8.17,45.37,32.53,125.06,93.42,151.79,33.96,14.91,51.21,29.79,128.42,18.58,27.16-3.94,52.37-8.26,74.81-31.18,42.51-43.4,42.47-64.8,62.3-116.67,7.43-19.42,4.77-67.84-5.57-87.33-6.59-12.42-11.43-22.98-16.26-32.47l-27.41,15.82c8.75,12.04,15.88,25.93,22.79,48.72,7.69,25.37,.8,45.36-7.13,66.6-22.56,60.41-40.2,66.99-64.49,85.68-43.56,33.5-110.99,19.49-147.12,7.39-24.01-8.04-47.9-28.3-59.41-49.49-24.32-44.77-29.65-74.29-17.88-122.57,11.02-45.21,32.55-54.06,53.79-75.46,7.49-7.55,24.58-20.2,33.38-24.45,24.05-11.62,39.32-11.67,60-10.74v-31.59c-12.79-.94-27.54,.28-46.06,5.26h0ZM70.13,211.47c-4.96,0-8.98-4.02-8.98-8.98s4.02-8.98,8.98-8.98,8.98,4.02,8.98,8.98-4.02,8.98-8.98,8.98h0Zm48.88-69.83c-5.51,0-9.98-4.47-9.98-9.98s4.47-9.98,9.98-9.98,9.98,4.47,9.98,9.98-4.47,9.98-9.98,9.98h0Zm43.89-19.95c-4.96,0-8.98-4.02-8.98-8.98s4.02-8.98,8.98-8.98,8.98,4.02,8.98,8.98-4.02,8.98-8.98,8.98h0Zm-7.98,41.9c-2.75,0-4.99-2.23-4.99-4.99s2.23-4.99,4.99-4.99,4.99,2.23,4.99,4.99-2.23,4.99-4.99,4.99h0Zm4.99,115.72c-6.06,0-10.97-4.91-10.97-10.97s4.91-10.97,10.97-10.97,10.97,4.91,10.97,10.97-4.91,10.97-10.97,10.97h0Zm59.85-42.9c-7.16,0-12.97-5.81-12.97-12.97s5.81-12.97,12.97-12.97,12.97,5.81,12.97,12.97-5.81,12.97-12.97,12.97h0Zm71.82-55.86c-2.2,0-3.99-1.79-3.99-3.99s1.79-3.99,3.99-3.99,3.99,1.79,3.99,3.99-1.79,3.99-3.99,3.99h0Zm-3.99,43.89c-4.96,0-8.98-4.02-8.98-8.98s4.02-8.98,8.98-8.98,8.98,4.02,8.98,8.98-4.02,8.98-8.98,8.98h0Zm-67.83,95.77c-3.31,0-5.99-2.68-5.99-5.99s2.68-5.99,5.99-5.99,5.99,2.68,5.99,5.99-2.68,5.99-5.99,5.99h0Zm12.97-38.91c-9.37,0-16.96-7.59-16.96-16.96s7.59-16.96,16.96-16.96,16.96,7.59,16.96,16.96-7.59,16.96-16.96,16.96h0Zm-130.68,20.95c-5.51,0-9.98-4.47-9.98-9.98s4.47-9.98,9.98-9.98,9.98,4.47,9.98,9.98-4.47,9.98-9.98,9.98h0Zm67.83,22.94c-9.37,0-16.96-7.59-16.96-16.96s7.59-16.96,16.96-16.96,16.96,7.59,16.96,16.96-7.59,16.96-16.96,16.96h0Zm-61.85-79.81c-3.86,0-6.98-3.13-6.98-6.98s3.13-6.98,6.98-6.98,6.98,3.13,6.98,6.98-3.13,6.98-6.98,6.98h0Zm44.89-28.93c-3.31,0-5.98-2.68-5.98-5.99s2.68-5.99,5.98-5.99,5.99,2.68,5.99,5.99-2.68,5.99-5.99,5.99h0Zm-55.86-30.92c-8.81,0-15.96-7.15-15.96-15.96s7.15-15.96,15.96-15.96,15.96,7.15,15.96,15.96-7.15,15.96-15.96,15.96h0Zm8.38,147.86c-36.49-22.91-37.96-44.42-50.55-69.33-4.44-8.79-10.55-27.5-11.71-36.48-4.25-32.89,5.15-45.81,15.78-76.32,5.56-15.94,31.34-42.62,46.11-48.56,33.93-13.65,47.54-23.81,80.31-25.57V215.77l116.63-67.31c6.75,12.04,9.22,22.89,13.77,35.98,16.68,48.07-15.35,103.2-36.56,131.4-14.09,18.74-38.88,33.8-60.86,37.71-46.45,8.27-73.94,4.31-112.91-20.16h0Z"/><path class="c" d="M360.29,90.09c-9.67-19-19.31-33.7-42.84-50.47-9.63-6.86-33-17.64-45.36-21.19C248.97,11.78,231.56,1.82,206.8,0V31.59c7.05,.32,14.72,.74,23.58,.87,18.23,.25,54.37,17.57,65.5,30.67,15.61,18.39,27.3,29.45,37,42.79l27.41-15.82h0Zm-92.64-.33c-1.65,0-2.99-1.34-2.99-2.99s1.34-2.99,2.99-2.99,2.99,1.34,2.99,2.99-1.34,2.99-2.99,2.99h0Zm-38.91,30.92c-5.51,0-9.98-4.47-9.98-9.98s4.47-9.98,9.98-9.98,9.97,4.47,9.97,9.98-4.47,9.98-9.97,9.98h0Zm54.87-7.98c-3.31,0-5.99-2.68-5.99-5.99s2.68-5.99,5.99-5.99,5.99,2.68,5.99,5.99-2.68,5.99-5.99,5.99h0Zm-46.89-28.93c-7.71,0-13.97-6.25-13.97-13.97s6.25-13.97,13.97-13.97,13.97,6.25,13.97,13.97-6.25,13.97-13.97,13.97h0Zm21.95,55.86c6.61,0,11.97-5.36,11.97-11.97s-5.36-11.97-11.97-11.97-11.97,5.36-11.97,11.97,5.36,11.97,11.97,11.97h0Zm-36.91,11.97c2.75,0,4.99-2.23,4.99-4.99s-2.23-4.99-4.99-4.99-4.99,2.23-4.99,4.99,2.23,4.99,4.99,4.99h0Zm101.66-40.25l-116.63,67.31V40.04c5.3-.28,11.1-.35,17.58-.17,24.54,.67,40.08,12.57,56.42,25.76,23.78,19.19,35.55,33.12,42.63,45.75v-.02Z"/></g></g></svg>