<?xml version="1.0" encoding="UTF-8"?><svg xmlns="http://www.w3.org/2000/svg" viewBox="0 0 221.35 137.24"><g id="a"/><g id="b"><g id="c"><path d="M169.52,34.11C157.86,13.76,135.85,0,110.68,0S63.49,13.76,51.84,34.11C20.7,43.99,0,61.47,0,81.4c0,30.84,49.55,55.84,110.68,55.84s110.68-25,110.68-55.84c0-19.93-20.7-37.41-51.84-47.29Zm-38.14,52.69v-1.44c0-5.95-4.84-10.77-10.82-10.77h-5.22c6.69-3.6,20.49-13.3,20.49-32.12,0-14.35-11.04-25.59-25.14-25.59s-25.15,11.24-25.15,25.59c0,18.83,13.79,28.53,20.49,32.12h-5.22c-5.98,0-10.82,4.82-10.82,10.77v1.44c-21.76-2.94-36.87-10.44-36.87-19.45,0-31.59,25.82-57.3,57.57-57.3s57.57,25.7,57.57,57.3c0,9.01-15.11,16.5-36.87,19.45Zm-18.01-26.83l.44-3.74c.7-5.86,6.66-10.11,13.31-9.5l4.25,.39-.44,3.74c-.7,5.86-6.66,10.11-13.31,9.5l-4.25-.39Zm-5.38,0l-4.25,.39c-6.66,.61-12.62-3.64-13.31-9.5l-.44-3.74,4.25-.39c6.66-.61,12.62,3.64,13.31,9.5l.44,3.74Z"/></g></g></svg>